<?xml version="1.0" encoding="UTF-8" standalone="no"?>
<!DOCTYPE svg PUBLIC "-//W3C//DTD SVG 1.1//EN" "http://www.w3.org/Graphics/SVG/1.1/DTD/svg11.dtd">
<svg version="1.1" xmlns="http://www.w3.org/2000/svg" xmlns:xlink="http://www.w3.org/1999/xlink" preserveAspectRatio="xMidYMid meet" viewBox="0 0 640 640" width="640" height="640"><defs><path d="M610.34 0C626.72 0 640 13.28 640 29.66C640 151.73 640 488.27 640 610.34C640 626.72 626.72 640 610.34 640C488.27 640 151.73 640 29.66 640C13.28 640 0 626.72 0 610.34C0 488.27 0 151.73 0 29.66C0 13.28 13.28 0 29.66 0C151.73 0 488.27 0 610.34 0Z" id="dISH7k0OX"></path><path d="M221.51 437.88L230.91 378.41L268.32 400.01L305.73 421.61L258.93 459.48L212.12 497.34L221.51 437.88Z" id="bnMOUREmG"></path><path d="M256.16 457.88L265.55 398.41L302.96 420.01L340.37 441.61L293.57 479.48L246.76 517.34L256.16 457.88Z" id="b1JKEPHebL"></path><path d="M228.84 465.19L238.23 405.72L275.65 427.32L313.05 448.92L266.25 486.79L219.45 524.65L228.84 465.19Z" id="a3CQBOlCdM"></path><path d="M406.79 288.55L357.81 461.75L281.28 417.56L204.74 373.38L330.25 244.36L455.76 115.35L406.79 288.55Z" id="f2e7GWl7us"></path><path d="M255.29 305.06L134.24 357.23L270.65 435.98L407.05 514.73L391.7 383.82L376.35 252.9L255.29 305.06Z" id="bvfFISA3a"></path><path d="M331.19 436.3L341.55 523.55L250.45 470.95L159.36 418.36L240.09 383.71L320.82 349.06L331.19 436.3Z" id="e8JGbXCKf"></path></defs><g><g><g><use xlink:href="#dISH7k0OX" opacity="1" fill="#018642" fill-opacity="1"></use></g><g><g><g><use xlink:href="#bnMOUREmG" opacity="1" fill="#fafafa" fill-opacity="1"></use></g><g><use xlink:href="#b1JKEPHebL" opacity="1" fill="#fafafa" fill-opacity="1"></use></g><g><use xlink:href="#a3CQBOlCdM" opacity="1" fill="#fafafa" fill-opacity="1"></use></g></g><g><use xlink:href="#f2e7GWl7us" opacity="1" fill="#fafafa" fill-opacity="1"></use></g><g><use xlink:href="#bvfFISA3a" opacity="1" fill="#fafafa" fill-opacity="1"></use></g><g><use xlink:href="#e8JGbXCKf" opacity="1" fill="#fafafa" fill-opacity="1"></use></g></g></g></g></svg>